<svg xmlns="http://www.w3.org/2000/svg" viewBox="0 0 100 100">
  <defs>
    <linearGradient id="puzzleGrad" x1="0%" y1="0%" x2="100%" y2="100%">
      <stop offset="0%" style="stop-color:#a855f7;stop-opacity:1" />
      <stop offset="100%" style="stop-color:#ec4899;stop-opacity:1" />
    </linearGradient>
  </defs>
  
  <!-- Puzzle piece shape -->
  <path d="M 15,15 
           L 40,15 
           C 40,10 45,5 50,5 
           C 55,5 60,10 60,15 
           L 85,15 
           L 85,40 
           C 90,40 95,45 95,50 
           C 95,55 90,60 85,60 
           L 85,85 
           L 60,85 
           C 60,90 55,95 50,95 
           C 45,95 40,90 40,85 
           L 15,85 
           L 15,60 
           C 10,60 5,55 5,50 
           C 5,45 10,40 15,40 
           Z" 
        fill="url(#puzzleGrad)" 
        stroke="#fff" 
        stroke-width="2"/>
</svg>
